<?xml version="1.0" encoding="utf-8"?>
<!-- Generator: Adobe Illustrator 25.0.1, SVG Export Plug-In . SVG Version: 6.00 Build 0)  -->
<svg version="1.1" id="Layer_1" xmlns="http://www.w3.org/2000/svg" xmlns:xlink="http://www.w3.org/1999/xlink" x="0px" y="0px"
	 viewBox="0 0 320 320" style="enable-background:new 0 0 320 320;" xml:space="preserve">
<style type="text/css">
	.st0{fill:#1D9BF0;}
	.st1{fill:#FFFFFF;}
</style>
<path class="st0" d="M250.87,320H69.13C30.95,320,0,289.05,0,250.87V69.13C0,30.95,30.95,0,69.13,0h181.74
	C289.05,0,320,30.95,320,69.13v181.74C320,289.05,289.05,320,250.87,320z"/>
<g>
	<path class="st1" d="M175.74,240.37c-0.38,0.02-0.67,0.04-0.96,0.04c-14.09,0-28.18,0.07-42.27-0.03
		c-22.64-0.17-42.57-16.66-47.14-38.84c-0.73-3.53-1.08-7.08-1.09-10.67c-0.02-8.61-0.01-17.22-0.01-25.83c0-0.39,0-0.77,0-1.4
		c-0.55,0.45-0.95,0.75-1.32,1.07c-4.09,3.6-8.17,7.2-12.25,10.81c-0.51,0.45-0.86,0.67-1.43,0.02
		c-5.78-6.6-11.59-13.17-17.39-19.75c-0.13-0.14-0.23-0.31-0.38-0.51c3.27-2.89,6.52-5.76,9.77-8.63
		c9.64-8.5,19.28-16.99,28.92-25.48c2.42-2.13,4.86-4.26,7.25-6.42c0.57-0.52,0.96-0.53,1.55-0.01
		c6.93,6.14,13.89,12.26,20.83,18.38c8.02,7.07,16.05,14.14,24.07,21.21c1.1,0.97,1.11,0.96,0.16,2.03
		c-5.65,6.41-11.3,12.82-16.95,19.22c-0.15,0.17-0.31,0.33-0.56,0.61c-4.77-4.2-9.5-8.37-14.35-12.63
		c-0.04,0.37-0.08,0.61-0.08,0.85c0,8.94-0.03,17.87,0.01,26.81c0.04,10.11,6.73,18.51,16.57,20.76c1.63,0.37,3.35,0.5,5.04,0.5
		c13.57,0.04,27.14,0.02,40.71,0.02c1.34,0,1.35,0,1.35,1.33c0,8.45,0,16.89,0,25.34C175.8,239.57,175.76,239.95,175.74,240.37z"/>
	<path class="st1" d="M146.26,81.63c0.38-0.02,0.67-0.04,0.96-0.04c14.09,0,28.18-0.07,42.27,0.03
		c22.64,0.17,42.57,16.66,47.14,38.84c0.73,3.53,1.08,7.08,1.09,10.67c0.02,8.61,0.01,17.22,0.01,25.83c0,0.39,0,0.77,0,1.4
		c0.55-0.45,0.95-0.75,1.32-1.07c4.09-3.6,8.17-7.2,12.25-10.81c0.51-0.45,0.86-0.67,1.43-0.02c5.78,6.6,11.59,13.17,17.39,19.75
		c0.13,0.14,0.23,0.31,0.38,0.51c-3.27,2.89-6.52,5.76-9.77,8.63c-9.64,8.5-19.28,16.99-28.92,25.48c-2.42,2.13-4.86,4.26-7.25,6.42
		c-0.57,0.52-0.96,0.53-1.55,0.01c-6.93-6.14-13.89-12.26-20.83-18.38c-8.02-7.07-16.05-14.14-24.07-21.21
		c-1.1-0.97-1.11-0.96-0.16-2.03c5.65-6.41,11.3-12.82,16.95-19.22c0.15-0.17,0.31-0.33,0.56-0.61c4.77,4.2,9.5,8.37,14.35,12.63
		c0.04-0.37,0.08-0.61,0.08-0.85c0-8.94,0.03-17.87-0.01-26.81c-0.04-10.11-6.73-18.51-16.57-20.76c-1.63-0.37-3.35-0.5-5.04-0.5
		c-13.57-0.04-27.14-0.02-40.71-0.02c-1.34,0-1.35,0-1.35-1.33c0-8.45,0-16.89,0-25.34C146.19,82.43,146.23,82.05,146.26,81.63z"/>
</g>
</svg>
